#!OML:ASF H:\Not Pregnant\Project 1\Capture day 1\Session 1\non-pregnant.ASF
:FULLY-SPECIFIED
:DEGREES
679
root -4.41763 15.7225 39.6947 -167.627 -1.32538 -173.078
lowerback 3.46729 2.04854 9.56508
upperback -6.79672 3.14118 0.723899
thorax -8.72388 0.723508 -4.87569
lowerneck 16.8398 -8.03957 -32.1045
upperneck -5.15153 -19.8207 39.6163
head 3.69984 -12.5858 19.7607
rclavicle 3.33049e-014 7.90169e-015
rhumerus -33.2641 -0.547554 -81.1933
rradius 30.5834
rwrist 18.778
rhand -9.82001 -1.36979
rfingers 7.12502
rthumb 16.157 -30.7164
lclavicle 3.33049e-014 7.90169e-015
lhumerus -45.0586 -1.77754 86.1108
lradius 38.8151
lwrist 38.8658
lhand -15.7568 -11.1947
lfingers 7.12502
lthumb 10.4348 18.5263
rfemur -9.80701 -7.774 32.6434
rtibia 17.2573
rfoot -19.9674 18.5475
rtoes -9.94635
lfemur -46.3656 -0.883827 -8.04748
ltibia 36.7548
lfoot -7.85983 -10.0555
ltoes -28.3198
680
root -4.41625 15.7189 39.7655 -167.694 -1.44338 -173.061
lowerback 3.6035 2.0191 9.6493
upperback -6.75786 3.12965 0.747586
thorax -8.76252 0.714574 -4.9018
lowerneck 16.8381 -8.0587 -32.1089
upperneck -5.24284 -19.8334 39.6714
head 3.69176 -12.5965 19.7868
rclavicle -4.11137e-014 -1.99282e-014
rhumerus -33.3401 -0.966606 -80.9133
rradius 29.9493
rwrist 19.2713
rhand -9.72808 -1.47649
rfingers 7.12502
rthumb 16.2455 -30.8159
lclavicle -4.11137e-014 -1.99282e-014
lhumerus -45.0567 -1.73589 86.2941
lradius 38.6334
lwrist 38.7604
lhand -15.7174 -11.1757
lfingers 7.12502
lthumb 10.4728 18.5434
rfemur -10.3152 -7.93168 32.7315
rtibia 17.8239
rfoot -20.1907 18.465
rtoes -10.0163
lfemur -46.4604 -0.843774 -8.15764
ltibia 38.0382
lfoot -8.65479 -9.08797
ltoes -28.4788
681
root -4.41583 15.7156 39.8336 -167.766 -1.53454 -173.06
lowerback 3.72632 1.99912 9.71499
upperback -6.71015 3.12795 0.764377
thorax -8.78205 0.713251 -4.92524
lowerneck 16.8352 -8.07687 -32.1124
upperneck -5.34595 -19.8443 39.7388
head 3.6821 -12.608 19.8201
rclavicle -4.3787e-015 -2.93207e-014
rhumerus -33.4105 -1.46654 -80.6032
rradius 29.2769
rwrist 19.8135
rhand -9.62835 -1.59954
rfingers 7.12502
rthumb 16.3415 -30.9311
lclavicle -4.3787e-015 -2.93207e-014
lhumerus -45.037 -1.71438 86.4841
lradius 38.412
lwrist 38.629
lhand -15.6803 -11.1357
lfingers 7.12502
lthumb 10.5086 18.5817
rfemur -10.8087 -8.0605 32.7924
rtibia 18.3942
rfoot -20.4101 18.3757
rtoes -10.1325
lfemur -46.5148 -0.782671 -8.29997
ltibia 39.3511
lfoot -9.41464 -8.20187
ltoes -28.5797
682
root -4.41599 15.7126 39.8992 -167.834 -1.59769 -173.076
lowerback 3.83262 1.99161 9.75276
upperback -6.66729 3.13827 0.773262
thorax -8.79563 0.719438 -4.94212
lowerneck 16.8637 -8.08394 -32.1071
upperneck -5.45877 -19.8462 39.8092
head 3.65961 -12.6187 19.86
rclavicle -1.61542e-014 -2.3382e-014
rhumerus -33.5045 -2.04196 -80.2636
rradius 28.5773
rwrist 20.3995
rhand -9.52635 -1.74098
rfingers 7.12502
rthumb 16.4397 -31.0644
lclavicle -1.61542e-014 -2.3382e-014
lhumerus -45.0236 -1.71608 86.6798
lradius 38.1542
lwrist 38.4848
lhand -15.6436 -11.1008
lfingers 7.12502
lthumb 10.5439 18.6147
rfemur -11.296 -8.14561 32.8279
rtibia 18.9665
rfoot -20.6246 18.25
rtoes -10.2844
lfemur -46.5322 -0.697572 -8.47401
ltibia 40.6747
lfoot -10.1264 -7.43433
ltoes -28.6793
683
root -4.41651 15.71 39.962 -167.901 -1.63444 -173.116
lowerback 3.92225 1.99345 9.75471
upperback -6.6261 3.15592 0.775046
thorax -8.80064 0.73186 -4.94675
lowerneck 16.8883 -8.09391 -32.0997
upperneck -5.54952 -19.8559 39.8683
head 3.64462 -12.6319 19.891
rclavicle -1.52769e-014 -6.94504e-015
rhumerus -33.6182 -2.68383 -79.8945
rradius 27.8512
rwrist 21.0465
rhand -9.4319 -1.87298
rfingers 7.12502
rthumb 16.5307 -31.1888
lclavicle -1.52769e-014 -6.94504e-015
lhumerus -45.0172 -1.73169 86.8773
lradius 37.8694
lwrist 38.3278
lhand -15.6096 -11.0755
lfingers 7.12502
lthumb 10.5768 18.6384
rfemur -11.7693 -8.17575 32.8356
rtibia 19.5381
rfoot -20.8343 18.0644
rtoes -10.4476
lfemur -46.5015 -0.597042 -8.67843
ltibia 41.9926
lfoot -10.7922 -6.81054
ltoes -28.7639
684
root -4.41698 15.7077 40.0223 -167.958 -1.65023 -173.18
lowerback 3.98477 2.00381 9.71586
upperback -6.58734 3.17784 0.771406
thorax -8.79249 0.749528 -4.93379
lowerneck 16.8797 -8.11836 -32.0963
upperneck -5.59067 -19.8871 39.9042
head 3.6545 -12.6502 19.8999
rclavicle 2.72991e-014 2.49847e-014
rhumerus -33.7504 -3.38205 -79.4964
rradius 27.1214
rwrist 21.7202
rhand -9.31174 -2.02264
rfingers 7.12502
rthumb 16.6463 -31.3288
lclavicle 2.72991e-014 2.49847e-014
lhumerus -45.0098 -1.7533 87.0722
lradius 37.5596
lwrist 38.1495
lhand -15.5739 -11.0536
lfingers 7.12502
lthumb 10.6112 18.6585
rfemur -12.2396 -8.14159 32.822
rtibia 20.1054
rfoot -21.0376 17.796
rtoes -10.6011
lfemur -46.432 -0.490189 -8.90577
ltibia 43.2915
lfoot -11.4172 -6.3391
ltoes -28.8851
685
root -4.41724 15.7056 40.0802 -167.999 -1.64842 -173.268
lowerback 4.02094 2.02273 9.63452
upperback -6.55989 3.20373 0.761528
thorax -8.78158 0.771135 -4.90325
lowerneck 16.8612 -8.14733 -32.0961
upperneck -5.58519 -19.9321 39.9167
head 3.68046 -12.6718 19.8919
rclavicle 3.53667e-014 1.26508e-014
rhumerus -33.9203 -4.12918 -79.0676
rradius 26.38
rwrist 22.4699
rhand -9.22239 -2.12117
rfingers 7.12502
rthumb 16.7324 -31.4201
lclavicle 3.53667e-014 1.26508e-014
lhumerus -45.0251 -1.77988 87.2584
lradius 37.2423
lwrist 37.9466
lhand -15.5303 -11.0254
lfingers 7.12502
lthumb 10.6533 18.6845
rfemur -12.7099 -8.04059 32.7899
rtibia 20.6653
rfoot -21.2317 17.4374
rtoes -10.7187
lfemur -46.3277 -0.386943 -9.15033
ltibia 44.5626
lfoot -12.0141 -6.00664
ltoes -29.0416
686
root -4.41741 15.7037 40.1352 -168.028 -1.6292 -173.379
lowerback 4.02847 2.05093 9.51731
upperback -6.54326 3.23473 0.743963
thorax -8.76563 0.796872 -4.86033
lowerneck 16.8595 -8.16916 -32.101
upperneck -5.56234 -19.9793 39.9253
head 3.70864 -12.6961 19.8851
rclavicle -2.38714e-014 1.20575e-014
rhumerus -34.1352 -4.91736 -78.6107
rradius 25.6441
rwrist 23.2809
rhand -9.153 -2.17677
rfingers 7.12502
rthumb 16.7992 -31.47
lclavicle -2.38714e-014 1.20575e-014
lhumerus -45.0665 -1.81685 87.4329
lradius 36.9301
lwrist 37.7357
lhand -15.4693 -10.9776
lfingers 7.12502
lthumb 10.7121 18.7293
rfemur -13.173 -7.86737 32.7394
rtibia 21.2155
rfoot -21.4192 16.992
rtoes -10.7857
lfemur -46.1825 -0.300054 -9.40486
ltibia 45.8007
lfoot -12.598 -5.77183
ltoes -29.2216
687
root -4.41724 15.7016 40.1881 -168.04 -1.60745 -173.512
lowerback 4.00461 2.08293 9.36842
upperback -6.52782 3.26394 0.717877
thorax -8.73335 0.824392 -4.80732
lowerneck 16.8552 -8.19118 -32.1019
upperneck -5.54266 -20.0272 39.9412
head 3.73752 -12.7219 19.8811
rclavicle -2.38848e-014 -3.1321e-014
rhumerus -34.3686 -5.74766 -78.1303
rradius 24.9227
rwrist 24.1625
rhand -9.08644 -2.20031
rfingers 7.12502
rthumb 16.8632 -31.4881
lclavicle -2.38848e-014 -3.1321e-014
lhumerus -45.1073 -1.86327 87.5885
lradius 36.6367
lwrist 37.5591
lhand -15.3911 -10.8858
lfingers 7.12502
lthumb 10.7875 18.8172
rfemur -13.6366 -7.62448 32.6719
rtibia 21.7556
rfoot -21.6015 16.4594
rtoes -10.8097
lfemur -46.0104 -0.241419 -9.66599
ltibia 47.0039
lfoot -13.1674 -5.6026
ltoes -29.4245
688
root -4.41692 15.6992 40.2385 -168.04 -1.58356 -173.665
lowerback 3.94778 2.11883 9.1948
upperback -6.50798 3.29216 0.683043
thorax -8.67734 0.854325 -4.74817
lowerneck 16.8692 -8.2004 -32.0993
upperneck -5.56031 -20.0564 39.9826
head 3.74933 -12.7436 19.8983
rclavicle 3.7922e-014 1.95679e-014
rhumerus -34.6198 -6.61019 -77.6302
rradius 24.2291
rwrist 25.0952
rhand -9.01499 -2.18882
rfingers 7.12502
rthumb 16.932 -31.4708
lclavicle 3.7922e-014 1.95679e-014
lhumerus -45.1491 -1.91614 87.7213
lradius 36.3813
lwrist 37.4975
lhand -15.283 -10.7491
lfingers 7.12502
lthumb 10.8918 18.9484
rfemur -14.0922 -7.32384 32.5825
rtibia 22.2854
rfoot -21.7784 15.8709
rtoes -10.7863
lfemur -45.8043 -0.213925 -9.93372
ltibia 48.1704
lfoot -13.7179 -5.45555
ltoes -29.618
